<?xml version="1.0" encoding="iso-8859-1"?>
<!-- Generator: Adobe Illustrator 19.0.0, SVG Export Plug-In . SVG Version: 6.00 Build 0)  -->
<svg version="1.1" id="Capa_1" xmlns="http://www.w3.org/2000/svg" xmlns:xlink="http://www.w3.org/1999/xlink" x="0px" y="0px"
	 viewBox="0 0 512 512" style="enable-background:new 0 0 512 512;" xml:space="preserve">
<linearGradient id="SVGID_1_" gradientUnits="userSpaceOnUse" x1="-42.8838" y1="631.4979" x2="-26.523" y2="615.1371" gradientTransform="matrix(21.3333 0 0 -21.3333 996.3334 13553.4453)">
	<stop  offset="0" style="stop-color:#369CDC"/>
	<stop  offset="1" style="stop-color:#AA56D0"/>
</linearGradient>
<path style="fill:url(#SVGID_1_);" d="M384.704,181.845c17.707-49.664,24.853-92.501,17.835-118.699
	c-3.328-12.437-9.579-21.333-18.603-26.496C378.517,33.557,372.331,32,365.525,32C337.152,32,297.195,61.013,256,108.757
	C214.784,61.013,174.827,32,146.453,32c-6.805,0-12.992,1.557-18.411,4.651c-9.024,5.163-15.296,14.059-18.603,26.496
	c-7.04,26.197,0.107,69.035,17.813,118.699C54.976,195.179,0,220.245,0,256s54.997,60.821,127.275,74.155
	c-17.707,49.664-24.832,92.501-17.835,118.699c3.328,12.437,9.579,21.333,18.603,26.496c5.44,3.093,11.627,4.651,18.432,4.651
	c28.352,0,68.331-29.013,109.525-76.757C297.216,450.987,337.173,480,365.547,480c6.805,0,12.992-1.557,18.411-4.651
	c9.024-5.163,15.296-14.059,18.603-26.496c7.019-26.197-0.107-69.035-17.813-118.699C457.024,316.821,512,291.755,512,256
	S457.003,195.179,384.704,181.845z M365.525,53.333c3.115,0,5.653,0.597,7.829,1.835c3.904,2.24,6.784,6.763,8.576,13.483
	c6.144,22.891-1.323,62.912-18.496,109.653c-19.2-2.816-39.211-4.928-59.584-6.165c-11.179-16.725-22.571-32.341-33.963-46.613
	C309.355,79.232,345.216,53.333,365.525,53.333z M340.331,279.253c5.589,11.648,10.709,23.083,15.296,34.261
	c-11.733,1.621-24.277,2.923-37.355,3.989c3.904-6.272,7.744-12.672,11.563-19.2C333.568,291.925,336.853,285.589,340.331,279.253z
	 M311.445,287.552c-6.443,11.029-12.971,21.483-19.541,31.573C280.299,319.637,268.437,320,256,320
	c-12.437,0-24.32-0.363-35.925-0.875c-6.549-10.091-13.099-20.544-19.541-31.573c-6.144-10.517-11.904-21.056-17.387-31.509
	c5.483-10.475,11.243-21.035,17.408-31.573c6.443-11.029,12.971-21.483,19.541-31.573C231.701,192.363,243.563,192,256,192
	c12.437,0,24.32,0.363,35.925,0.875c6.549,10.091,13.099,20.544,19.541,31.573c6.144,10.517,11.904,21.056,17.387,31.509
	C323.371,266.453,317.589,276.992,311.445,287.552z M277.163,341.013c-7.083,10.091-14.144,19.52-21.163,28.437
	c-7.019-8.896-14.08-18.347-21.184-28.416c7.083,0.171,14.144,0.299,21.184,0.299C263.04,341.333,270.101,341.205,277.163,341.013z
	 M182.123,298.283c3.819,6.528,7.68,12.928,11.563,19.2c-13.035-1.045-25.579-2.347-37.291-3.968
	c4.587-11.157,9.707-22.571,15.275-34.219C175.147,285.632,178.411,291.947,182.123,298.283z M171.669,232.747
	c-5.589-11.648-10.709-23.083-15.296-34.261c11.733-1.621,24.277-2.923,37.333-3.968c-3.904,6.272-7.765,12.672-11.563,19.2
	C178.432,220.075,175.147,226.411,171.669,232.747z M234.837,170.987c7.083-10.091,14.144-19.52,21.163-28.437
	c7.019,8.896,14.08,18.347,21.163,28.416c-7.061-0.171-14.123-0.299-21.163-0.299C248.96,170.667,241.899,170.795,234.837,170.987z
	 M329.877,213.717c-3.819-6.528-7.68-12.928-11.563-19.2c13.035,1.045,25.579,2.347,37.291,3.968
	c-4.587,11.157-9.707,22.571-15.275,34.219C336.853,226.368,333.589,220.053,329.877,213.717z M130.048,68.672
	c1.792-6.72,4.693-11.264,8.576-13.483c2.197-1.259,4.736-1.856,7.829-1.856c20.309,0,56.171,25.899,95.659,72.213
	c-11.392,14.272-22.763,29.888-33.941,46.613c-20.395,1.259-40.427,3.349-59.627,6.187
	C131.349,131.584,123.904,91.584,130.048,68.672z M21.333,256c0-18.176,41.344-41.195,113.451-54.08
	c6.997,17.515,15.168,35.627,24.512,54.101c-9.323,18.475-17.493,36.565-24.491,54.059C62.699,297.195,21.333,274.176,21.333,256z
	 M146.475,458.667c-3.115,0-5.653-0.597-7.829-1.835c-3.904-2.24-6.784-6.763-8.576-13.483
	c-6.144-22.891,1.323-62.912,18.496-109.653c19.2,2.816,39.211,4.928,59.584,6.165c11.179,16.725,22.571,32.341,33.963,46.613
	C202.645,432.747,166.784,458.667,146.475,458.667z M381.952,443.328c-1.792,6.72-4.693,11.264-8.576,13.483
	c-2.197,1.259-4.736,1.856-7.829,1.856c-20.309,0-56.171-25.92-95.659-72.213c11.392-14.272,22.763-29.888,33.941-46.613
	c20.395-1.259,40.427-3.349,59.627-6.187C380.651,380.416,388.096,420.416,381.952,443.328z M377.216,310.08
	c-6.997-17.515-15.168-35.627-24.512-54.101c9.323-18.475,17.493-36.565,24.491-54.059c72.107,12.885,113.472,35.904,113.472,54.08
	C490.667,274.176,449.323,297.195,377.216,310.08z"/>
<linearGradient id="SVGID_2_" gradientUnits="userSpaceOnUse" x1="-36.1178" y1="624.7302" x2="-33.2888" y2="621.9052" gradientTransform="matrix(21.3333 0 0 -21.3333 996.3334 13553.4453)">
	<stop  offset="0" style="stop-color:#369CDC"/>
	<stop  offset="1" style="stop-color:#AA56D0"/>
</linearGradient>
<path style="fill:url(#SVGID_2_);" d="M256,213.333c-23.531,0-42.667,19.136-42.667,42.667s19.136,42.667,42.667,42.667
	c23.509,0,42.667-19.136,42.667-42.667S279.509,213.333,256,213.333z M256,277.333c-11.776,0-21.333-9.579-21.333-21.333
	c0-11.755,9.557-21.333,21.333-21.333s21.333,9.579,21.333,21.333C277.333,267.755,267.776,277.333,256,277.333z"/>
<g>
</g>
<g>
</g>
<g>
</g>
<g>
</g>
<g>
</g>
<g>
</g>
<g>
</g>
<g>
</g>
<g>
</g>
<g>
</g>
<g>
</g>
<g>
</g>
<g>
</g>
<g>
</g>
<g>
</g>
</svg>
